%TF.GenerationSoftware,KiCad,Pcbnew,6.0.4-6f826c9f35~116~ubuntu20.04.1*%
%TF.CreationDate,2022-05-04T13:56:28-03:00*%
%TF.ProjectId,projeto1,70726f6a-6574-46f3-912e-6b696361645f,rev?*%
%TF.SameCoordinates,Original*%
%TF.FileFunction,Legend,Bot*%
%TF.FilePolarity,Positive*%
%FSLAX46Y46*%
G04 Gerber Fmt 4.6, Leading zero omitted, Abs format (unit mm)*
G04 Created by KiCad (PCBNEW 6.0.4-6f826c9f35~116~ubuntu20.04.1) date 2022-05-04 13:56:28*
%MOMM*%
%LPD*%
G01*
G04 APERTURE LIST*
%ADD10C,0.150000*%
%ADD11C,0.120000*%
G04 APERTURE END LIST*
D10*
%TO.C,J1*%
X155942380Y-97466666D02*
X156656666Y-97466666D01*
X156799523Y-97419047D01*
X156894761Y-97323809D01*
X156942380Y-97180952D01*
X156942380Y-97085714D01*
X156942380Y-98466666D02*
X156942380Y-97895238D01*
X156942380Y-98180952D02*
X155942380Y-98180952D01*
X156085238Y-98085714D01*
X156180476Y-97990476D01*
X156228095Y-97895238D01*
D11*
X158380000Y-103515000D02*
X159140000Y-103515000D01*
X157430000Y-94855000D02*
X167710000Y-94855000D01*
X158440000Y-97515000D02*
X158440000Y-103515000D01*
X160920000Y-97515000D02*
X160920000Y-103515000D01*
X164220000Y-94457929D02*
X164220000Y-94855000D01*
X166000000Y-103515000D02*
X166760000Y-103515000D01*
X159140000Y-103515000D02*
X159140000Y-97515000D01*
X162570000Y-94855000D02*
X162570000Y-97515000D01*
X158380000Y-97515000D02*
X158380000Y-103515000D01*
X167710000Y-97515000D02*
X157430000Y-97515000D01*
X166760000Y-103515000D02*
X166760000Y-97515000D01*
X157490000Y-92145000D02*
X157490000Y-93415000D01*
X158380000Y-94525000D02*
X158380000Y-94855000D01*
X167710000Y-94855000D02*
X167710000Y-97515000D01*
X159040000Y-97515000D02*
X159040000Y-103515000D01*
X157430000Y-97515000D02*
X157430000Y-94855000D01*
X163460000Y-103515000D02*
X164220000Y-103515000D01*
X166000000Y-97515000D02*
X166000000Y-103515000D01*
X159140000Y-94525000D02*
X159140000Y-94855000D01*
X163460000Y-94457929D02*
X163460000Y-94855000D01*
X166760000Y-94457929D02*
X166760000Y-94855000D01*
X158560000Y-97515000D02*
X158560000Y-103515000D01*
X161680000Y-94457929D02*
X161680000Y-94855000D01*
X164220000Y-103515000D02*
X164220000Y-97515000D01*
X165110000Y-94855000D02*
X165110000Y-97515000D01*
X166000000Y-94457929D02*
X166000000Y-94855000D01*
X158920000Y-97515000D02*
X158920000Y-103515000D01*
X160920000Y-94457929D02*
X160920000Y-94855000D01*
X163460000Y-97515000D02*
X163460000Y-103515000D01*
X158680000Y-97515000D02*
X158680000Y-103515000D01*
X161680000Y-103515000D02*
X161680000Y-97515000D01*
X158800000Y-97515000D02*
X158800000Y-103515000D01*
X160030000Y-94855000D02*
X160030000Y-97515000D01*
X160920000Y-103515000D02*
X161680000Y-103515000D01*
X158760000Y-92145000D02*
X157490000Y-92145000D01*
%TD*%
M02*
