%TF.GenerationSoftware,KiCad,Pcbnew,6.0.4-6f826c9f35~116~ubuntu20.04.1*%
%TF.CreationDate,2022-05-06T19:33:47-03:00*%
%TF.ProjectId,highLed,68696768-4c65-4642-9e6b-696361645f70,rev?*%
%TF.SameCoordinates,Original*%
%TF.FileFunction,Legend,Top*%
%TF.FilePolarity,Positive*%
%FSLAX46Y46*%
G04 Gerber Fmt 4.6, Leading zero omitted, Abs format (unit mm)*
G04 Created by KiCad (PCBNEW 6.0.4-6f826c9f35~116~ubuntu20.04.1) date 2022-05-06 19:33:47*
%MOMM*%
%LPD*%
G01*
G04 APERTURE LIST*
%ADD10C,0.150000*%
%ADD11C,0.120000*%
G04 APERTURE END LIST*
D10*
%TO.C,R1*%
X144613333Y-85712380D02*
X144280000Y-85236190D01*
X144041904Y-85712380D02*
X144041904Y-84712380D01*
X144422857Y-84712380D01*
X144518095Y-84760000D01*
X144565714Y-84807619D01*
X144613333Y-84902857D01*
X144613333Y-85045714D01*
X144565714Y-85140952D01*
X144518095Y-85188571D01*
X144422857Y-85236190D01*
X144041904Y-85236190D01*
X145565714Y-85712380D02*
X144994285Y-85712380D01*
X145280000Y-85712380D02*
X145280000Y-84712380D01*
X145184761Y-84855238D01*
X145089523Y-84950476D01*
X144994285Y-84998095D01*
%TO.C,D1*%
X150391904Y-95552380D02*
X150391904Y-94552380D01*
X150630000Y-94552380D01*
X150772857Y-94600000D01*
X150868095Y-94695238D01*
X150915714Y-94790476D01*
X150963333Y-94980952D01*
X150963333Y-95123809D01*
X150915714Y-95314285D01*
X150868095Y-95409523D01*
X150772857Y-95504761D01*
X150630000Y-95552380D01*
X150391904Y-95552380D01*
X151915714Y-95552380D02*
X151344285Y-95552380D01*
X151630000Y-95552380D02*
X151630000Y-94552380D01*
X151534761Y-94695238D01*
X151439523Y-94790476D01*
X151344285Y-94838095D01*
%TO.C,BT1*%
X137644285Y-96658571D02*
X137787142Y-96706190D01*
X137834761Y-96753809D01*
X137882380Y-96849047D01*
X137882380Y-96991904D01*
X137834761Y-97087142D01*
X137787142Y-97134761D01*
X137691904Y-97182380D01*
X137310952Y-97182380D01*
X137310952Y-96182380D01*
X137644285Y-96182380D01*
X137739523Y-96230000D01*
X137787142Y-96277619D01*
X137834761Y-96372857D01*
X137834761Y-96468095D01*
X137787142Y-96563333D01*
X137739523Y-96610952D01*
X137644285Y-96658571D01*
X137310952Y-96658571D01*
X138168095Y-96182380D02*
X138739523Y-96182380D01*
X138453809Y-97182380D02*
X138453809Y-96182380D01*
X139596666Y-97182380D02*
X139025238Y-97182380D01*
X139310952Y-97182380D02*
X139310952Y-96182380D01*
X139215714Y-96325238D01*
X139120476Y-96420476D01*
X139025238Y-96468095D01*
D11*
%TO.C,R1*%
X148050000Y-89000000D02*
X148050000Y-86260000D01*
X151360000Y-87630000D02*
X148050000Y-87630000D01*
X148050000Y-86260000D02*
X141510000Y-86260000D01*
X141510000Y-89000000D02*
X148050000Y-89000000D01*
X141510000Y-86260000D02*
X141510000Y-89000000D01*
X138200000Y-87630000D02*
X141510000Y-87630000D01*
%TO.C,D1*%
X148570000Y-97515000D02*
X148570000Y-100605000D01*
X148570000Y-100604830D02*
G75*
G03*
X154120000Y-99059538I2560000J1544830D01*
G01*
X154120000Y-99060462D02*
G75*
G03*
X148570000Y-97515170I-2990000J462D01*
G01*
X153630000Y-99060000D02*
G75*
G03*
X153630000Y-99060000I-2500000J0D01*
G01*
%TO.C,BT1*%
X135830000Y-97730000D02*
X137160000Y-97730000D01*
X135830000Y-99060000D02*
X135830000Y-97730000D01*
X135830000Y-100330000D02*
X135830000Y-100390000D01*
X138430000Y-100330000D02*
X138430000Y-97730000D01*
X135830000Y-100330000D02*
X138430000Y-100330000D01*
X138430000Y-97730000D02*
X141030000Y-97730000D01*
X135830000Y-100390000D02*
X141030000Y-100390000D01*
X141030000Y-97730000D02*
X141030000Y-100390000D01*
%TD*%
M02*
